<?xml version="1.0" encoding="UTF-8" standalone="no"?>
<!DOCTYPE svg PUBLIC "-//W3C//DTD SVG 1.1//EN"
 "http://www.w3.org/Graphics/SVG/1.1/DTD/svg11.dtd">
<!-- Generated by graphviz version 2.47.2 (20210527.1257)
 -->
<!-- Title: snakemake_dag Pages: 1 -->
<svg width="430pt" height="188pt"
 viewBox="0.00 0.00 429.50 188.00" xmlns="http://www.w3.org/2000/svg" xmlns:xlink="http://www.w3.org/1999/xlink">
<g id="graph0" class="graph" transform="scale(1 1) rotate(0) translate(4 184)">
<title>snakemake_dag</title>
<polygon fill="white" stroke="transparent" points="-4,4 -4,-184 425.5,-184 425.5,4 -4,4"/>
<!-- 0 -->
<g id="node1" class="node">
<title>0</title>
<path fill="none" stroke="#d8a456" stroke-width="2" d="M201,-36C201,-36 171,-36 171,-36 165,-36 159,-30 159,-24 159,-24 159,-12 159,-12 159,-6 165,0 171,0 171,0 201,0 201,0 207,0 213,-6 213,-12 213,-12 213,-24 213,-24 213,-30 207,-36 201,-36"/>
<text text-anchor="middle" x="186" y="-15.5" font-family="sans" font-size="10.00">all</text>
</g>
<!-- 1 -->
<g id="node2" class="node">
<title>1</title>
<path fill="none" stroke="#78d856" stroke-width="2" d="M42,-108C42,-108 12,-108 12,-108 6,-108 0,-102 0,-96 0,-96 0,-84 0,-84 0,-78 6,-72 12,-72 12,-72 42,-72 42,-72 48,-72 54,-78 54,-84 54,-84 54,-96 54,-96 54,-102 48,-108 42,-108"/>
<text text-anchor="middle" x="27" y="-87.5" font-family="sans" font-size="10.00">lda</text>
</g>
<!-- 1&#45;&gt;0 -->
<g id="edge3" class="edge">
<title>1&#45;&gt;0</title>
<path fill="none" stroke="grey" stroke-width="2" d="M54.08,-76.09C57.08,-74.69 60.1,-73.31 63,-72 91.81,-58.99 124.71,-44.85 149.23,-34.45"/>
<polygon fill="grey" stroke="grey" stroke-width="2" points="150.68,-37.64 158.52,-30.52 147.95,-31.2 150.68,-37.64"/>
</g>
<!-- 2 -->
<g id="node3" class="node">
<title>2</title>
<path fill="none" stroke="#56a2d8" stroke-width="2" d="M84,-180C84,-180 44,-180 44,-180 38,-180 32,-174 32,-168 32,-168 32,-156 32,-156 32,-150 38,-144 44,-144 44,-144 84,-144 84,-144 90,-144 96,-150 96,-156 96,-156 96,-168 96,-168 96,-174 90,-180 84,-180"/>
<text text-anchor="middle" x="64" y="-159.5" font-family="sans" font-size="10.00">mixscape</text>
</g>
<!-- 2&#45;&gt;1 -->
<g id="edge6" class="edge">
<title>2&#45;&gt;1</title>
<path fill="none" stroke="grey" stroke-width="2" d="M54.85,-143.7C50.6,-135.64 45.44,-125.89 40.73,-116.98"/>
<polygon fill="grey" stroke="grey" stroke-width="2" points="43.81,-115.31 36.04,-108.1 37.62,-118.58 43.81,-115.31"/>
</g>
<!-- 3 -->
<g id="node4" class="node">
<title>3</title>
<path fill="none" stroke="#56d87b" stroke-width="2" d="M120,-108C120,-108 84,-108 84,-108 78,-108 72,-102 72,-96 72,-96 72,-84 72,-84 72,-78 78,-72 84,-72 84,-72 120,-72 120,-72 126,-72 132,-78 132,-84 132,-84 132,-96 132,-96 132,-102 126,-108 120,-108"/>
<text text-anchor="middle" x="102" y="-87.5" font-family="sans" font-size="10.00">visualize</text>
</g>
<!-- 2&#45;&gt;3 -->
<g id="edge7" class="edge">
<title>2&#45;&gt;3</title>
<path fill="none" stroke="grey" stroke-width="2" d="M73.39,-143.7C77.76,-135.64 83.06,-125.89 87.9,-116.98"/>
<polygon fill="grey" stroke="grey" stroke-width="2" points="91.02,-118.56 92.71,-108.1 84.87,-115.22 91.02,-118.56"/>
</g>
<!-- 3&#45;&gt;0 -->
<g id="edge4" class="edge">
<title>3&#45;&gt;0</title>
<path fill="none" stroke="grey" stroke-width="2" d="M122.76,-71.7C133.24,-62.97 146.11,-52.24 157.5,-42.75"/>
<polygon fill="grey" stroke="grey" stroke-width="2" points="160.03,-45.19 165.47,-36.1 155.55,-39.82 160.03,-45.19"/>
</g>
<!-- 4 -->
<g id="node5" class="node">
<title>4</title>
<path fill="none" stroke="#c6d856" stroke-width="2" d="M209.5,-108C209.5,-108 162.5,-108 162.5,-108 156.5,-108 150.5,-102 150.5,-96 150.5,-96 150.5,-84 150.5,-84 150.5,-78 156.5,-72 162.5,-72 162.5,-72 209.5,-72 209.5,-72 215.5,-72 221.5,-78 221.5,-84 221.5,-84 221.5,-96 221.5,-96 221.5,-102 215.5,-108 209.5,-108"/>
<text text-anchor="middle" x="186" y="-87.5" font-family="sans" font-size="10.00">env_export</text>
</g>
<!-- 4&#45;&gt;0 -->
<g id="edge2" class="edge">
<title>4&#45;&gt;0</title>
<path fill="none" stroke="grey" stroke-width="2" d="M186,-71.7C186,-63.98 186,-54.71 186,-46.11"/>
<polygon fill="grey" stroke="grey" stroke-width="2" points="189.5,-46.1 186,-36.1 182.5,-46.1 189.5,-46.1"/>
</g>
<!-- 5 -->
<g id="node6" class="node">
<title>5</title>
<path fill="none" stroke="#d85656" stroke-width="2" d="M310.5,-108C310.5,-108 251.5,-108 251.5,-108 245.5,-108 239.5,-102 239.5,-96 239.5,-96 239.5,-84 239.5,-84 239.5,-78 245.5,-72 251.5,-72 251.5,-72 310.5,-72 310.5,-72 316.5,-72 322.5,-78 322.5,-84 322.5,-84 322.5,-96 322.5,-96 322.5,-102 316.5,-108 310.5,-108"/>
<text text-anchor="middle" x="281" y="-87.5" font-family="sans" font-size="10.00">config_export</text>
</g>
<!-- 5&#45;&gt;0 -->
<g id="edge1" class="edge">
<title>5&#45;&gt;0</title>
<path fill="none" stroke="grey" stroke-width="2" d="M257.52,-71.7C245.44,-62.8 230.55,-51.82 217.48,-42.2"/>
<polygon fill="grey" stroke="grey" stroke-width="2" points="219.34,-39.22 209.21,-36.1 215.19,-44.85 219.34,-39.22"/>
</g>
<!-- 6 -->
<g id="node7" class="node">
<title>6</title>
<path fill="none" stroke="#56d8c9" stroke-width="2" d="M409.5,-108C409.5,-108 352.5,-108 352.5,-108 346.5,-108 340.5,-102 340.5,-96 340.5,-96 340.5,-84 340.5,-84 340.5,-78 346.5,-72 352.5,-72 352.5,-72 409.5,-72 409.5,-72 415.5,-72 421.5,-78 421.5,-84 421.5,-84 421.5,-96 421.5,-96 421.5,-102 415.5,-108 409.5,-108"/>
<text text-anchor="middle" x="381" y="-87.5" font-family="sans" font-size="10.00">annot_export</text>
</g>
<!-- 6&#45;&gt;0 -->
<g id="edge5" class="edge">
<title>6&#45;&gt;0</title>
<path fill="none" stroke="grey" stroke-width="2" d="M340.12,-74.33C305.51,-61.9 256.32,-44.24 222.89,-32.24"/>
<polygon fill="grey" stroke="grey" stroke-width="2" points="223.65,-28.8 213.06,-28.71 221.29,-35.39 223.65,-28.8"/>
</g>
</g>
</svg>
